<svg width="36" height="10" viewBox="0 0 36 10" fill="none" xmlns="http://www.w3.org/2000/svg">
<path d="M6.2168 9H0.585938V8.16211L2.8418 5.89453C3.5293 5.19922 3.98242 4.70312 4.20117 4.40625C4.41992 4.10938 4.58398 3.82031 4.69336 3.53906C4.80273 3.25781 4.85742 2.95508 4.85742 2.63086C4.85742 2.17383 4.71875 1.8125 4.44141 1.54688C4.16406 1.27734 3.7793 1.14258 3.28711 1.14258C2.93164 1.14258 2.59375 1.20117 2.27344 1.31836C1.95703 1.43555 1.60352 1.64844 1.21289 1.95703L0.697266 1.29492C1.48633 0.638672 2.3457 0.310547 3.27539 0.310547C4.08008 0.310547 4.71094 0.517578 5.16797 0.931641C5.625 1.3418 5.85352 1.89453 5.85352 2.58984C5.85352 3.13281 5.70117 3.66992 5.39648 4.20117C5.0918 4.73242 4.52148 5.4043 3.68555 6.2168L1.81055 8.05078V8.09766H6.2168V9ZM11.8711 2.57812V4.92188C11.8711 5.67188 12.2988 6.04688 13.1543 6.04688C13.5098 6.04688 13.8496 5.99219 14.1738 5.88281C14.498 5.77344 14.8652 5.58789 15.2754 5.32617V2.57812H16.248V9H15.2754V6.09375C14.8652 6.375 14.4844 6.57422 14.1328 6.69141C13.7852 6.80469 13.3906 6.86133 12.9492 6.86133C12.3086 6.86133 11.8066 6.69336 11.4434 6.35742C11.0801 6.02148 10.8984 5.56641 10.8984 4.99219V2.57812H11.8711ZM22.2656 9L22.0723 8.08594H22.0254C21.7051 8.48828 21.3848 8.76172 21.0645 8.90625C20.748 9.04688 20.3516 9.11719 19.875 9.11719C19.2383 9.11719 18.7383 8.95312 18.375 8.625C18.0156 8.29688 17.8359 7.83008 17.8359 7.22461C17.8359 5.92773 18.873 5.24805 20.9473 5.18555L22.0371 5.15039V4.75195C22.0371 4.24805 21.9277 3.87695 21.709 3.63867C21.4941 3.39648 21.1484 3.27539 20.6719 3.27539C20.1367 3.27539 19.5312 3.43945 18.8555 3.76758L18.5566 3.02344C18.873 2.85156 19.2188 2.7168 19.5938 2.61914C19.9727 2.52148 20.3516 2.47266 20.7305 2.47266C21.4961 2.47266 22.0625 2.64258 22.4297 2.98242C22.8008 3.32227 22.9863 3.86719 22.9863 4.61719V9H22.2656ZM20.0684 8.31445C20.6738 8.31445 21.1484 8.14844 21.4922 7.81641C21.8398 7.48438 22.0137 7.01953 22.0137 6.42188V5.8418L21.041 5.88281C20.2676 5.91016 19.709 6.03125 19.3652 6.24609C19.0254 6.45703 18.8555 6.78711 18.8555 7.23633C18.8555 7.58789 18.9609 7.85547 19.1719 8.03906C19.3867 8.22266 19.6855 8.31445 20.0684 8.31445ZM27.5625 9.11719C26.6328 9.11719 25.9121 8.83203 25.4004 8.26172C24.8926 7.6875 24.6387 6.87695 24.6387 5.83008C24.6387 4.75586 24.8965 3.92578 25.4121 3.33984C25.9316 2.75391 26.6699 2.46094 27.627 2.46094C27.9355 2.46094 28.2441 2.49414 28.5527 2.56055C28.8613 2.62695 29.1035 2.70508 29.2793 2.79492L28.9805 3.62109C28.7656 3.53516 28.5312 3.46484 28.2773 3.41016C28.0234 3.35156 27.7988 3.32227 27.6035 3.32227C26.2988 3.32227 25.6465 4.1543 25.6465 5.81836C25.6465 6.60742 25.8047 7.21289 26.1211 7.63477C26.4414 8.05664 26.9141 8.26758 27.5391 8.26758C28.0742 8.26758 28.623 8.15234 29.1855 7.92188V8.7832C28.7559 9.00586 28.2148 9.11719 27.5625 9.11719ZM34.6641 9L34.4707 8.08594H34.4238C34.1035 8.48828 33.7832 8.76172 33.4629 8.90625C33.1465 9.04688 32.75 9.11719 32.2734 9.11719C31.6367 9.11719 31.1367 8.95312 30.7734 8.625C30.4141 8.29688 30.2344 7.83008 30.2344 7.22461C30.2344 5.92773 31.2715 5.24805 33.3457 5.18555L34.4355 5.15039V4.75195C34.4355 4.24805 34.3262 3.87695 34.1074 3.63867C33.8926 3.39648 33.5469 3.27539 33.0703 3.27539C32.5352 3.27539 31.9297 3.43945 31.2539 3.76758L30.9551 3.02344C31.2715 2.85156 31.6172 2.7168 31.9922 2.61914C32.3711 2.52148 32.75 2.47266 33.1289 2.47266C33.8945 2.47266 34.4609 2.64258 34.8281 2.98242C35.1992 3.32227 35.3848 3.86719 35.3848 4.61719V9H34.6641ZM32.4668 8.31445C33.0723 8.31445 33.5469 8.14844 33.8906 7.81641C34.2383 7.48438 34.4121 7.01953 34.4121 6.42188V5.8418L33.4395 5.88281C32.666 5.91016 32.1074 6.03125 31.7637 6.24609C31.4238 6.45703 31.2539 6.78711 31.2539 7.23633C31.2539 7.58789 31.3594 7.85547 31.5703 8.03906C31.7852 8.22266 32.084 8.31445 32.4668 8.31445Z" fill="#9E9E9E"/>
</svg>
